<svg width="628" height="667" viewBox="0 0 628 667" fill="none" xmlns="http://www.w3.org/2000/svg">
<path fill-rule="evenodd" clip-rule="evenodd" d="M137.107 8.86047C124.601 20.3391 109.574 50.4831 105.062 73.1472C103.257 82.2167 101.779 98.1948 101.779 108.653C101.779 125.271 101.209 128.18 97.2531 131.743C94.7626 133.985 90.884 139.413 88.6298 143.808C86.2017 148.547 82.5787 152.188 79.7272 152.757C48.7948 158.936 19.8844 165.65 14.3813 167.935C3.65216 172.388 -0.342518 180.394 0.0227835 196.708C0.411722 214.151 6.87971 231.775 18.0601 245.857C24.3175 253.739 30.6178 258.463 43.0295 264.574L59.5046 270.609L101.34 273.451C135.503 274.024 142.597 264.44 146.961 258.544C151.861 251.922 156.358 241.339 152.59 234.316C151.19 233.055 149.27 234.182 145.873 236.176C139.443 239.949 127.724 246.828 104.241 246.478C82.2048 246.148 62.0724 245.427 59.5046 244.873C53.3826 243.553 41.6113 233.617 41.6113 229.768C41.6113 228.108 43.3303 226.749 45.4297 226.749C51.0124 226.749 58.3442 221 62.1777 213.619C67.0319 204.271 62.4614 198.096 48.1587 194.679C28.2928 189.934 30.4524 188.888 79.2158 179.632C119.461 171.992 122.186 170.702 132.739 154.315C143.749 137.216 154.99 128.874 169.553 127.001L180.211 125.63L172.35 131.794C148.275 150.675 141.972 181.804 159.103 197.24C162.509 200.309 165.199 200.593 176.165 199.05C201.265 195.518 224.891 204.042 243.081 223.191C261.325 242.4 268.42 260.924 267.544 287.069C266.613 314.782 255.076 332.265 217.635 362.674C185.4 388.857 172.89 403.272 161.488 427.354C149.517 452.644 150.108 468.517 163.02 468.517C168.964 468.517 170.401 466.827 184.229 443.578C197.436 421.376 204.4 415.268 212.381 418.89C220.027 422.358 219.384 430.063 210.477 441.681C187.442 471.726 185.974 521.723 206.899 563.369C216.438 582.351 220.478 584.561 245.63 584.561C259.279 584.561 268.44 583.224 279.844 579.567L295.414 574.574L303.696 557.383C314.674 534.588 317.171 524.59 317.491 502.129C317.777 482.169 319.206 479.315 328.942 479.247C336.583 479.195 338.988 486.709 338.859 510.238C338.747 530.655 335.634 544.445 326.359 565.577C324.733 569.285 325.427 569.46 336.214 568.089C354.578 565.75 380.804 559.237 410.2 549.714C425.141 544.875 437.609 541.233 437.907 541.623C438.204 542.012 441.388 546.663 444.979 551.959C462.451 577.715 487.107 592.738 514.494 594.317C530.709 595.25 552.466 591.031 558.994 585.684C566.145 579.828 562.488 587.901 546.61 613.03C537.086 628.101 528.231 641.708 526.933 643.266C524.301 646.422 479.973 647.47 479.973 644.374C479.973 641.556 490.431 628.3 496.386 623.573C502.714 618.55 501.246 616.357 488.757 612.167C473.632 607.093 454.101 594.285 440.819 580.731C427.623 567.267 426.845 566.818 420.762 569.122C400.399 576.837 349.932 588.203 302.694 595.71C270.045 600.899 264.166 605.383 245.314 639.479L241.652 646.099L241.585 646.108C227.126 648.13 210.434 650.463 182.679 645.774C182.679 641.673 193.411 627.373 198.267 625.839C201.738 624.742 201.946 623.372 200.146 613.421C197.324 597.835 190.923 579.589 182.282 562.505C176.311 550.696 171.598 545.194 157.158 533.163C134.89 514.615 123.598 502.422 111.629 484.001C92.0443 453.855 83.5457 423.387 83.7369 384.005C83.8723 356.063 86.6142 342.607 98.0696 313.681C104.222 298.143 104.493 296.412 101.579 291.243C97.1714 283.423 88.5353 280.712 81.8739 285.058C74.9998 289.542 62.1132 315.867 56.421 337.059C50.1743 360.312 49.592 406.136 55.2091 432.145C63.1748 469.015 84.1689 506.464 112.924 535.095C130.412 552.509 134.993 563.102 138.474 594.198C141.139 617.983 140.277 621.637 131.598 623.366C121.667 625.342 114.498 645.787 109.889 658.931C108.636 662.507 111.314 666.378 115.103 666.363C119.505 666.347 121.8 666.315 124.288 666.281C133.132 666.161 144.417 666.006 261.507 666.361C264.522 666.37 267.427 664.832 268.902 662.204C270.947 658.562 272.693 654.992 274.364 651.576C281.27 637.458 286.899 625.95 307.02 622.767C337.479 617.951 366.626 611.874 389.722 605.531C402.131 602.12 412.551 599.262 412.875 599.181C425.223 612.328 404.213 623.572 395.385 628.296C394.651 628.689 394.001 629.036 393.462 629.336C387.868 632.447 385.338 652.67 384.182 661.91C383.904 664.127 385.817 666.377 388.051 666.361C390.979 666.34 392.975 666.301 394.679 666.268C398.384 666.195 400.714 666.149 408.251 666.376C432.442 667.086 475.297 666.796 509.738 666.562C515.539 666.522 521.101 666.485 526.296 666.454C539.174 666.377 551.545 660.792 559.199 650.435C564.018 643.914 568.555 637.23 573.039 630.052C614.175 564.177 661.974 461.414 591.976 396.325C562.799 369.196 524.17 364.801 458.345 357.428C404.512 351.396 383.959 343.407 359.417 318.969C338.672 298.316 330.614 280.618 316.75 225.268C309.341 195.698 309.212 194.669 312.901 194.624C318.005 194.562 344.345 173.451 353.138 162.375C377.835 131.266 390.648 91.0487 385.691 60.2008C383.018 43.5617 376.55 37.8512 359.157 36.775C329.903 34.9628 285.28 57.9222 246.371 94.8036L233.023 107.455L219.511 104.001C212.078 102.102 203.102 100.3 199.563 99.9984L193.13 99.4464L192.479 83.3999C191.625 62.4153 186.861 43.1466 177.834 24.1753C165.283 -2.19666 153.845 -6.49927 137.107 8.86047ZM451.228 633.244C445.508 644.169 443.645 646.066 438.608 646.081C435.359 646.09 432.698 645.529 432.698 644.834C432.698 642.102 452.723 620.424 455.248 620.424C456.954 620.424 455.483 625.114 451.228 633.244ZM148.196 646.081C153.233 646.066 159.116 636.764 164.836 625.839C169.091 617.709 166.542 612.548 164.836 612.548C162.311 612.548 142.286 642.102 142.286 644.834C142.286 645.529 144.947 646.09 148.196 646.081Z" fill="#FF5C00"/>
</svg>
